<!DOCTYPE svg PUBLIC "-//W3C//DTD SVG 20010904//EN" "http://www.w3.org/TR/2001/REC-SVG-20010904/DTD/svg10.dtd">
<svg version="1.0" xmlns="http://www.w3.org/2000/svg" width="664px" height="237px" viewBox="0 0 6640 2370" preserveAspectRatio="xMidYMid meet">
<g id="layer101" fill="#c1c0c0" stroke="none">
<path d="M1266 1564 l-26 -27 0 -247 0 -248 -30 -57 c-30 -56 -30 -59 -30 -211 l0 -154 30 0 30 0 0 90 0 90 30 0 30 0 0 -90 0 -90 30 0 30 0 0 90 0 90 30 0 30 0 0 -90 0 -90 30 0 30 0 0 148 c-1 150 -11 204 -44 241 -14 15 -16 53 -16 275 l0 257 -25 24 c-34 35 -93 34 -129 -1z m92 -298 c2 -210 5 -263 17 -276 17 -19 45 -83 45 -105 0 -12 -16 -15 -91 -15 l-92 0 6 36 c3 20 18 51 32 69 l25 34 0 254 c0 139 3 257 7 261 4 4 16 6 28 4 19 -3 20 -10 23 -262z"/>
<path d="M1626 1559 c-26 -30 -26 -33 -26 -193 l0 -162 -30 -29 -30 -29 0 -214 c0 -200 1 -217 21 -249 23 -36 65 -63 100 -63 32 0 95 39 108 67 7 16 11 158 11 442 l0 418 -23 21 c-16 15 -36 22 -64 22 -34 0 -46 -6 -67 -31z m92 -441 l2 -407 -24 -16 c-28 -19 -69 -7 -85 24 -7 12 -11 96 -11 212 l0 193 31 32 31 32 -1 145 c-2 172 3 199 33 195 21 -3 21 -3 24 -410z"/>
</g>
<g id="layer102" fill="#c0c2c1" stroke="none">
<path d="M1350 1576 c0 -23 -17 -28 -34 -10 -15 14 -16 14 -16 -3 0 -14 -2 -15 -9 -5 -4 8 -12 13 -17 11 -29 -7 -33 -40 -34 -281 l0 -247 -30 -56 c-30 -56 -30 -60 -30 -211 l0 -154 30 0 31 0 -3 93 c-2 90 -1 92 22 92 13 0 25 6 27 13 3 6 -2 12 -11 12 -9 0 -16 7 -16 15 0 10 -10 15 -30 15 -20 0 -30 5 -30 15 0 8 7 15 16 15 8 0 22 17 31 38 8 20 23 48 33 62 15 22 17 54 19 232 2 204 2 206 -18 201 -19 -5 -21 -1 -21 36 0 34 3 41 20 41 11 0 20 6 20 14 0 19 21 26 43 14 15 -8 17 -31 17 -265 0 -236 1 -258 19 -277 30 -34 57 -137 31 -121 -5 3 -10 -4 -10 -15 0 -16 5 -20 15 -16 8 3 15 1 15 -4 0 -19 -32 -10 -37 10 -7 25 -20 26 -26 3 -4 -16 -5 -16 -6 -2 -1 21 -23 30 -42 18 -10 -6 -15 -39 -17 -124 l-4 -115 31 0 31 0 0 93 0 93 28 -2 c15 -1 29 -3 32 -3 3 -1 4 -41 2 -91 -2 -59 0 -90 7 -90 6 0 11 8 11 19 0 10 9 21 20 24 19 5 20 14 20 124 0 129 -11 184 -41 214 -19 19 -20 33 -20 279 1 247 0 259 -20 281 -11 13 -18 17 -14 9 4 -10 2 -9 -8 3 -17 21 -27 22 -27 3z m27 -228 c-3 -8 -6 -5 -6 6 -1 11 2 17 5 13 3 -3 4 -12 1 -19z m-90 -334 c-3 -3 -12 -4 -19 -1 -8 3 -5 6 6 6 11 1 17 -2 13 -5z m120 -10 c-3 -3 -12 -4 -19 -1 -8 3 -5 6 6 6 11 1 17 -2 13 -5z m-180 -26 c-3 -8 -6 -5 -6 6 -1 11 2 17 5 13 3 -3 4 -12 1 -19z m223 -32 c0 -2 -7 -6 -15 -10 -8 -3 -15 -1 -15 4 0 6 7 10 15 10 8 0 15 -2 15 -4z m-100 -216 c0 -23 -25 -27 -33 -6 -7 16 1 26 20 26 7 0 13 -9 13 -20z m-153 -42 c-3 -8 -6 -5 -6 6 -1 11 2 17 5 13 3 -3 4 -12 1 -19z"/>
<path d="M1716 1568 c-20 -22 -20 -34 -2 -41 9 -4 12 -16 9 -34 -4 -22 -2 -25 6 -13 7 9 11 10 11 3 0 -6 -4 -15 -10 -18 -15 -9 -13 -185 3 -185 8 0 9 -3 1 -8 -7 -5 -11 -93 -10 -280 l1 -274 -24 -19 c-14 -12 -31 -17 -42 -14 -14 5 -19 1 -19 -14 0 -14 -6 -21 -17 -20 -11 0 -13 3 -5 6 27 11 3 62 -28 58 -8 -1 -9 0 -2 2 9 3 12 54 12 205 l0 200 31 36 c29 33 30 36 13 43 -17 7 -17 8 -1 8 15 1 17 13 17 109 0 104 -1 107 -24 118 -31 15 -34 9 -34 -84 -1 -40 -1 -90 -1 -111 -1 -22 -8 -46 -16 -55 -9 -9 -15 -35 -16 -68 -1 -43 -3 -47 -8 -23 l-7 30 -7 -25 c-4 -14 -7 -105 -7 -204 0 -201 8 -228 74 -260 45 -21 61 -20 107 6 39 22 50 42 27 51 -8 4 -7 6 3 6 33 2 41 71 9 71 -11 0 -20 6 -20 14 0 9 7 12 20 9 15 -4 20 0 20 15 0 11 -8 23 -17 25 -17 4 -17 5 0 6 14 1 17 11 17 56 0 42 -3 55 -15 55 -8 0 -15 5 -15 10 0 6 7 10 15 10 24 0 21 117 -2 123 -17 4 -17 5 0 6 15 1 17 12 17 86 0 69 -3 85 -15 85 -11 0 -15 12 -15 45 0 33 4 45 15 45 8 0 15 5 15 10 0 6 -7 10 -15 10 -8 0 -15 9 -15 20 0 11 7 20 15 20 9 0 15 9 15 25 0 16 -6 25 -15 25 -8 0 -15 5 -15 10 0 6 7 10 15 10 24 0 18 50 -9 75 -23 22 -24 22 -40 3z m21 -140 c-3 -8 -6 -5 -6 6 -1 11 2 17 5 13 3 -3 4 -12 1 -19z m-110 -195 c-4 -3 -7 0 -7 7 0 7 3 10 7 7 3 -4 3 -10 0 -14z"/>
<path d="M1624 1558 c-14 -17 -17 -71 -4 -63 6 3 10 1 10 -4 0 -6 -7 -11 -16 -11 -8 0 -12 -4 -9 -10 3 -5 17 -10 31 -10 18 0 24 5 24 20 0 12 7 35 16 52 14 27 14 30 1 25 -9 -3 -18 -1 -21 6 -2 7 -5 3 -6 -8 -1 -19 -2 -19 -9 -2 -6 15 -9 16 -17 5z"/>
<path d="M2814 1423 c40 -103 123 -322 159 -418 45 -119 46 -120 79 -123 l34 -3 102 271 c56 148 102 275 102 280 0 6 -13 10 -29 10 -22 0 -31 -6 -39 -27 -5 -16 -21 -57 -35 -93 l-25 -65 -110 -3 -110 -3 -34 93 c-32 90 -34 93 -67 96 -29 3 -33 1 -27 -15z m304 -295 c-17 -46 -38 -102 -46 -126 -8 -24 -18 -40 -23 -35 -8 9 -89 221 -89 234 0 5 43 9 95 9 l94 0 -31 -82z"/>
<path d="M4800 1160 l0 -280 33 0 c30 1 36 8 112 128 43 70 107 174 142 232 l63 105 0 -232 0 -233 25 0 25 0 0 280 0 280 -28 0 c-25 0 -38 -16 -132 -167 -58 -91 -122 -196 -142 -232 l-38 -66 0 233 0 232 -30 0 -30 0 0 -280z"/>
<path d="M2150 1160 l0 -270 185 0 185 0 0 25 0 25 -155 0 -155 0 0 90 0 90 151 0 c150 0 150 0 147 23 -3 22 -6 22 -150 25 l-148 3 0 104 0 105 163 2 c159 3 162 3 165 26 l3 22 -195 0 -196 0 0 -270z"/>
<path d="M3738 1188 l-3 -243 -77 -3 c-43 -2 -78 -6 -79 -10 0 -4 -2 -15 -4 -24 -3 -17 11 -18 191 -18 l194 0 0 25 c0 25 -1 25 -80 25 l-80 0 0 245 0 245 -30 0 -30 0 -2 -242z"/>
<path d="M4350 1160 l0 -270 30 0 30 0 0 270 0 270 -30 0 -30 0 0 -270z"/>
<path d="M1544 1148 c-4 -7 -3 -8 4 -4 12 7 16 16 8 16 -3 0 -8 -5 -12 -12z"/>
</g>


</svg>