<!DOCTYPE svg PUBLIC "-//W3C//DTD SVG 20010904//EN" "http://www.w3.org/TR/2001/REC-SVG-20010904/DTD/svg10.dtd">
<svg version="1.0" xmlns="http://www.w3.org/2000/svg" width="664px" height="237px" viewBox="0 0 6640 2370" preserveAspectRatio="xMidYMid meet">
<g id="layer101" fill="#c0c1c1" stroke="none">
 <path d="M0 1185 l0 -1185 3320 0 3320 0 0 1185 0 1185 -3320 0 -3320 0 0 -1185z"/>
 </g>
<g id="layer102" fill="#fefefe" stroke="none">
 <path d="M0 1185 l0 -1185 3320 0 3320 0 0 1185 0 1185 -3320 0 -3320 0 0 -1185z m1395 380 l25 -24 0 -257 c0 -222 2 -260 16 -275 33 -37 43 -91 44 -241 l0 -148 -30 0 -30 0 0 90 0 90 -30 0 -30 0 0 -90 0 -90 -30 0 -30 0 0 90 0 90 -30 0 -30 0 0 -90 0 -90 -30 0 -30 0 0 154 c0 152 0 155 30 211 l30 57 0 248 0 247 26 27 c36 35 95 36 129 1z m362 3 l23 -21 0 -418 c0 -284 -4 -426 -11 -442 -13 -28 -76 -67 -108 -67 -35 0 -77 27 -100 63 -20 32 -21 49 -21 249 l0 214 30 29 30 29 0 162 c0 160 0 163 26 193 21 25 33 31 67 31 28 0 48 -7 64 -22z m1151 -226 l34 -93 110 3 110 3 25 65 c14 36 30 77 35 93 8 21 17 27 39 27 16 0 29 -4 29 -10 0 -5 -46 -132 -102 -280 l-102 -271 -34 3 c-34 3 -35 3 -79 123 -24 66 -68 183 -98 260 -30 77 -57 148 -61 158 -6 16 -2 18 27 15 33 -3 35 -6 67 -96z m1952 -134 l0 -233 38 66 c20 36 84 141 142 232 94 150 108 167 133 167 l27 0 0 -280 0 -280 -25 0 -25 0 0 233 0 232 -63 -105 c-35 -58 -99 -162 -142 -232 -76 -120 -82 -127 -112 -128 l-33 0 0 280 0 280 30 0 30 0 0 -232z m-2322 200 c-3 -23 -6 -23 -165 -26 l-163 -2 0 -105 0 -104 147 -3 c143 -3 146 -3 149 -25 4 -23 4 -23 -146 -23 l-150 0 0 -90 0 -90 155 0 155 0 0 -25 0 -25 -185 0 -185 0 0 270 0 270 196 0 195 0 -3 -22z m1262 -223 l0 -245 80 0 c79 0 80 0 80 -25 l0 -25 -194 0 c-180 0 -194 1 -191 18 2 9 4 20 4 24 1 4 36 8 79 10 l77 3 3 243 2 242 30 0 30 0 0 -245z m610 -25 l0 -270 -30 0 -30 0 0 270 0 270 30 0 30 0 0 -270z"/>
 <path d="M1307 1524 c-4 -4 -7 -122 -7 -261 l0 -254 -25 -34 c-14 -18 -29 -49 -32 -69 l-6 -36 92 0 c75 0 91 3 91 15 0 22 -28 86 -45 105 -12 13 -15 66 -17 276 -3 252 -4 259 -23 262 -12 2 -24 0 -28 -4z"/>
 <path d="M1680 1530 c-12 -7 -15 -42 -17 -176 l-2 -167 -31 -32 -30 -31 0 -193 c0 -116 4 -200 11 -212 16 -31 57 -43 85 -24 l24 15 0 404 c0 419 -2 439 -40 416z"/>
 <path d="M2960 1201 c0 -13 81 -225 89 -234 5 -5 15 11 23 35 8 24 29 80 46 126 l31 82 -94 0 c-52 0 -95 -4 -95 -9z"/>
 </g>

</svg>